<svg width="375" height="183" viewBox="0 0 375 183" fill="none" xmlns="http://www.w3.org/2000/svg">
<g filter="url(#filter0_d)">
<path d="M12 53C12 41.9543 20.9543 33 32 33H343C354.046 33 363 41.9543 363 53V53C363 64.0457 354.046 73 343 73H32C20.9543 73 12 64.0457 12 53V53Z" fill="white"/>
<path fill-rule="evenodd" clip-rule="evenodd" d="M53.5195 53.2724C53.5195 52.4215 53.4431 51.6033 53.3013 50.8179H41.9997V55.4596H48.4578C48.1796 56.9596 47.3341 58.2305 46.0633 59.0813V62.0922H49.9414C52.2104 60.0031 53.5195 56.9269 53.5195 53.2724Z" fill="#4285F4"/>
<path fill-rule="evenodd" clip-rule="evenodd" d="M41.9996 64.9992C45.2395 64.9992 47.9558 63.9247 49.9412 62.092L46.0631 59.0812C44.9886 59.8012 43.6141 60.2266 41.9996 60.2266C38.8742 60.2266 36.2288 58.1157 35.2852 55.2794H31.2762V58.3885C33.2507 62.3102 37.3088 64.9992 41.9996 64.9992Z" fill="#34A853"/>
<path fill-rule="evenodd" clip-rule="evenodd" d="M35.2853 55.2798C35.0453 54.5598 34.909 53.7907 34.909 52.9998C34.909 52.2089 35.0453 51.4399 35.2853 50.7199V47.6109H31.2763C30.4636 49.2308 30 51.0635 30 52.9998C30 54.9362 30.4636 56.7688 31.2763 58.3888L35.2853 55.2798Z" fill="#FBBC05"/>
<path fill-rule="evenodd" clip-rule="evenodd" d="M41.9996 45.7726C43.7614 45.7726 45.3431 46.378 46.5867 47.5671L50.0285 44.1254C47.9504 42.189 45.234 41 41.9996 41C37.3088 41 33.2507 43.689 31.2762 47.6107L35.2852 50.7198C36.2288 47.8835 38.8742 45.7726 41.9996 45.7726Z" fill="#EA4335"/>
<path d="M83.8359 55.2969C83.7214 56.5104 83.2734 57.4583 82.4922 58.1406C81.7109 58.8177 80.6719 59.1562 79.375 59.1562C78.4688 59.1562 77.6693 58.9427 76.9766 58.5156C76.2891 58.0833 75.7578 57.4714 75.3828 56.6797C75.0078 55.888 74.8125 54.9688 74.7969 53.9219V52.8594C74.7969 51.7865 74.987 50.8411 75.3672 50.0234C75.7474 49.2057 76.2917 48.5755 77 48.1328C77.7135 47.6901 78.5365 47.4688 79.4688 47.4688C80.724 47.4688 81.7344 47.8099 82.5 48.4922C83.2656 49.1745 83.7109 50.138 83.8359 51.3828H81.8672C81.7734 50.5651 81.5339 49.9766 81.1484 49.6172C80.7682 49.2526 80.2083 49.0703 79.4688 49.0703C78.6094 49.0703 77.9479 49.3854 77.4844 50.0156C77.026 50.6406 76.7917 51.5599 76.7812 52.7734V53.7812C76.7812 55.0104 77 55.9479 77.4375 56.5938C77.8802 57.2396 78.526 57.5625 79.375 57.5625C80.151 57.5625 80.7344 57.388 81.125 57.0391C81.5156 56.6901 81.763 56.1094 81.8672 55.2969H83.8359ZM85.0703 54.6953C85.0703 53.8672 85.2344 53.1224 85.5625 52.4609C85.8906 51.7943 86.3516 51.2839 86.9453 50.9297C87.5391 50.5703 88.2214 50.3906 88.9922 50.3906C90.1328 50.3906 91.0573 50.7578 91.7656 51.4922C92.4792 52.2266 92.8646 53.2005 92.9219 54.4141L92.9297 54.8594C92.9297 55.6927 92.7682 56.4375 92.4453 57.0938C92.1276 57.75 91.6693 58.2578 91.0703 58.6172C90.4766 58.9766 89.7891 59.1562 89.0078 59.1562C87.8151 59.1562 86.8594 58.7604 86.1406 57.9688C85.4271 57.1719 85.0703 56.112 85.0703 54.7891V54.6953ZM86.9688 54.8594C86.9688 55.7292 87.1484 56.4115 87.5078 56.9062C87.8672 57.3958 88.3672 57.6406 89.0078 57.6406C89.6484 57.6406 90.1458 57.3906 90.5 56.8906C90.8594 56.3906 91.0391 55.6589 91.0391 54.6953C91.0391 53.8411 90.8542 53.1641 90.4844 52.6641C90.1198 52.1641 89.6224 51.9141 88.9922 51.9141C88.3724 51.9141 87.8802 52.1615 87.5156 52.6562C87.151 53.1458 86.9688 53.8802 86.9688 54.8594ZM96.2969 50.5469L96.3516 51.5234C96.9766 50.7682 97.7969 50.3906 98.8125 50.3906C100.573 50.3906 101.469 51.3984 101.5 53.4141V59H99.6016V53.5234C99.6016 52.987 99.4844 52.5911 99.25 52.3359C99.0208 52.0755 98.6432 51.9453 98.1172 51.9453C97.3516 51.9453 96.7812 52.2917 96.4062 52.9844V59H94.5078V50.5469H96.2969ZM105.82 48.4922V50.5469H107.312V51.9531H105.82V56.6719C105.82 56.9948 105.883 57.2292 106.008 57.375C106.138 57.5156 106.367 57.5859 106.695 57.5859C106.914 57.5859 107.135 57.5599 107.359 57.5078V58.9766C106.927 59.0964 106.51 59.1562 106.109 59.1562C104.651 59.1562 103.922 58.3516 103.922 56.7422V51.9531H102.531V50.5469H103.922V48.4922H105.82ZM110.789 59H108.891V50.5469H110.789V59ZM108.773 48.3516C108.773 48.0599 108.865 47.8177 109.047 47.625C109.234 47.4323 109.5 47.3359 109.844 47.3359C110.188 47.3359 110.453 47.4323 110.641 47.625C110.828 47.8177 110.922 48.0599 110.922 48.3516C110.922 48.638 110.828 48.8776 110.641 49.0703C110.453 49.2578 110.188 49.3516 109.844 49.3516C109.5 49.3516 109.234 49.2578 109.047 49.0703C108.865 48.8776 108.773 48.638 108.773 48.3516ZM114.625 50.5469L114.68 51.5234C115.305 50.7682 116.125 50.3906 117.141 50.3906C118.901 50.3906 119.797 51.3984 119.828 53.4141V59H117.93V53.5234C117.93 52.987 117.812 52.5911 117.578 52.3359C117.349 52.0755 116.971 51.9453 116.445 51.9453C115.68 51.9453 115.109 52.2917 114.734 52.9844V59H112.836V50.5469H114.625ZM126.891 58.1719C126.333 58.8281 125.542 59.1562 124.516 59.1562C123.599 59.1562 122.904 58.888 122.43 58.3516C121.961 57.8151 121.727 57.0391 121.727 56.0234V50.5469H123.625V56C123.625 57.0729 124.07 57.6094 124.961 57.6094C125.883 57.6094 126.505 57.2786 126.828 56.6172V50.5469H128.727V59H126.938L126.891 58.1719ZM134.383 59.1562C133.18 59.1562 132.203 58.7786 131.453 58.0234C130.708 57.263 130.336 56.2526 130.336 54.9922V54.7578C130.336 53.9141 130.497 53.1615 130.82 52.5C131.148 51.8333 131.607 51.3151 132.195 50.9453C132.784 50.5755 133.44 50.3906 134.164 50.3906C135.315 50.3906 136.203 50.7578 136.828 51.4922C137.458 52.2266 137.773 53.2656 137.773 54.6094V55.375H132.25C132.307 56.0729 132.539 56.625 132.945 57.0312C133.357 57.4375 133.872 57.6406 134.492 57.6406C135.362 57.6406 136.07 57.2891 136.617 56.5859L137.641 57.5625C137.302 58.0677 136.849 58.4609 136.281 58.7422C135.719 59.0182 135.086 59.1562 134.383 59.1562ZM134.156 51.9141C133.635 51.9141 133.214 52.0964 132.891 52.4609C132.573 52.8255 132.37 53.3333 132.281 53.9844H135.898V53.8438C135.857 53.2083 135.688 52.7292 135.391 52.4062C135.094 52.0781 134.682 51.9141 134.156 51.9141ZM150.664 56.3828L152.008 50.5469H153.859L151.555 59H149.992L148.18 53.1953L146.398 59H144.836L142.523 50.5469H144.375L145.742 56.3203L147.477 50.5469H148.906L150.664 56.3828ZM157.148 59H155.25V50.5469H157.148V59ZM155.133 48.3516C155.133 48.0599 155.224 47.8177 155.406 47.625C155.594 47.4323 155.859 47.3359 156.203 47.3359C156.547 47.3359 156.812 47.4323 157 47.625C157.188 47.8177 157.281 48.0599 157.281 48.3516C157.281 48.638 157.188 48.8776 157 49.0703C156.812 49.2578 156.547 49.3516 156.203 49.3516C155.859 49.3516 155.594 49.2578 155.406 49.0703C155.224 48.8776 155.133 48.638 155.133 48.3516ZM161.602 48.4922V50.5469H163.094V51.9531H161.602V56.6719C161.602 56.9948 161.664 57.2292 161.789 57.375C161.919 57.5156 162.148 57.5859 162.477 57.5859C162.695 57.5859 162.917 57.5599 163.141 57.5078V58.9766C162.708 59.0964 162.292 59.1562 161.891 59.1562C160.432 59.1562 159.703 58.3516 159.703 56.7422V51.9531H158.312V50.5469H159.703V48.4922H161.602ZM166.422 51.4688C167.042 50.75 167.826 50.3906 168.773 50.3906C170.576 50.3906 171.49 51.4193 171.516 53.4766V59H169.617V53.5469C169.617 52.9635 169.49 52.5521 169.234 52.3125C168.984 52.0677 168.615 51.9453 168.125 51.9453C167.365 51.9453 166.797 52.2839 166.422 52.9609V59H164.523V47H166.422V51.4688ZM186.328 57.5234C185.917 58.0599 185.346 58.4661 184.617 58.7422C183.888 59.0182 183.06 59.1562 182.133 59.1562C181.18 59.1562 180.336 58.9401 179.602 58.5078C178.867 58.0755 178.299 57.4583 177.898 56.6562C177.503 55.849 177.297 54.9089 177.281 53.8359V52.9453C177.281 51.2266 177.693 49.8854 178.516 48.9219C179.339 47.9531 180.487 47.4688 181.961 47.4688C183.227 47.4688 184.232 47.7812 184.977 48.4062C185.721 49.0312 186.169 49.9323 186.32 51.1094H184.383C184.164 49.7396 183.37 49.0547 182 49.0547C181.115 49.0547 180.44 49.375 179.977 50.0156C179.518 50.651 179.281 51.5859 179.266 52.8203V53.6953C179.266 54.9245 179.523 55.8802 180.039 56.5625C180.56 57.2396 181.281 57.5781 182.203 57.5781C183.214 57.5781 183.932 57.349 184.359 56.8906V54.6641H182.016V53.1641H186.328V57.5234ZM187.961 54.6953C187.961 53.8672 188.125 53.1224 188.453 52.4609C188.781 51.7943 189.242 51.2839 189.836 50.9297C190.43 50.5703 191.112 50.3906 191.883 50.3906C193.023 50.3906 193.948 50.7578 194.656 51.4922C195.37 52.2266 195.755 53.2005 195.812 54.4141L195.82 54.8594C195.82 55.6927 195.659 56.4375 195.336 57.0938C195.018 57.75 194.56 58.2578 193.961 58.6172C193.367 58.9766 192.68 59.1562 191.898 59.1562C190.706 59.1562 189.75 58.7604 189.031 57.9688C188.318 57.1719 187.961 56.112 187.961 54.7891V54.6953ZM189.859 54.8594C189.859 55.7292 190.039 56.4115 190.398 56.9062C190.758 57.3958 191.258 57.6406 191.898 57.6406C192.539 57.6406 193.036 57.3906 193.391 56.8906C193.75 56.3906 193.93 55.6589 193.93 54.6953C193.93 53.8411 193.745 53.1641 193.375 52.6641C193.01 52.1641 192.513 51.9141 191.883 51.9141C191.263 51.9141 190.771 52.1615 190.406 52.6562C190.042 53.1458 189.859 53.8802 189.859 54.8594ZM197.07 54.6953C197.07 53.8672 197.234 53.1224 197.562 52.4609C197.891 51.7943 198.352 51.2839 198.945 50.9297C199.539 50.5703 200.221 50.3906 200.992 50.3906C202.133 50.3906 203.057 50.7578 203.766 51.4922C204.479 52.2266 204.865 53.2005 204.922 54.4141L204.93 54.8594C204.93 55.6927 204.768 56.4375 204.445 57.0938C204.128 57.75 203.669 58.2578 203.07 58.6172C202.477 58.9766 201.789 59.1562 201.008 59.1562C199.815 59.1562 198.859 58.7604 198.141 57.9688C197.427 57.1719 197.07 56.112 197.07 54.7891V54.6953ZM198.969 54.8594C198.969 55.7292 199.148 56.4115 199.508 56.9062C199.867 57.3958 200.367 57.6406 201.008 57.6406C201.648 57.6406 202.146 57.3906 202.5 56.8906C202.859 56.3906 203.039 55.6589 203.039 54.6953C203.039 53.8411 202.854 53.1641 202.484 52.6641C202.12 52.1641 201.622 51.9141 200.992 51.9141C200.372 51.9141 199.88 52.1615 199.516 52.6562C199.151 53.1458 198.969 53.8802 198.969 54.8594ZM206.203 54.7109C206.203 53.3984 206.51 52.3516 207.125 51.5703C207.745 50.7839 208.565 50.3906 209.586 50.3906C210.549 50.3906 211.307 50.7266 211.859 51.3984L211.945 50.5469H213.656V58.7422C213.656 59.8516 213.31 60.7266 212.617 61.3672C211.93 62.0078 211 62.3281 209.828 62.3281C209.208 62.3281 208.602 62.1979 208.008 61.9375C207.419 61.6823 206.971 61.3464 206.664 60.9297L207.562 59.7891C208.146 60.4818 208.865 60.8281 209.719 60.8281C210.349 60.8281 210.846 60.6562 211.211 60.3125C211.576 59.974 211.758 59.474 211.758 58.8125V58.2422C211.211 58.8516 210.482 59.1562 209.57 59.1562C208.581 59.1562 207.771 58.763 207.141 57.9766C206.516 57.1901 206.203 56.1016 206.203 54.7109ZM208.094 54.875C208.094 55.724 208.266 56.3932 208.609 56.8828C208.958 57.3672 209.44 57.6094 210.055 57.6094C210.82 57.6094 211.388 57.2812 211.758 56.625V52.9062C211.398 52.2656 210.836 51.9453 210.07 51.9453C209.445 51.9453 208.958 52.1927 208.609 52.6875C208.266 53.1823 208.094 53.9115 208.094 54.875ZM217.633 59H215.734V47H217.633V59ZM223.43 59.1562C222.227 59.1562 221.25 58.7786 220.5 58.0234C219.755 57.263 219.383 56.2526 219.383 54.9922V54.7578C219.383 53.9141 219.544 53.1615 219.867 52.5C220.195 51.8333 220.654 51.3151 221.242 50.9453C221.831 50.5755 222.487 50.3906 223.211 50.3906C224.362 50.3906 225.25 50.7578 225.875 51.4922C226.505 52.2266 226.82 53.2656 226.82 54.6094V55.375H221.297C221.354 56.0729 221.586 56.625 221.992 57.0312C222.404 57.4375 222.919 57.6406 223.539 57.6406C224.409 57.6406 225.117 57.2891 225.664 56.5859L226.688 57.5625C226.349 58.0677 225.896 58.4609 225.328 58.7422C224.766 59.0182 224.133 59.1562 223.43 59.1562ZM223.203 51.9141C222.682 51.9141 222.26 52.0964 221.938 52.4609C221.62 52.8255 221.417 53.3333 221.328 53.9844H224.945V53.8438C224.904 53.2083 224.734 52.7292 224.438 52.4062C224.141 52.0781 223.729 51.9141 223.203 51.9141Z" fill="black" fill-opacity="0.54"/>
<path d="M32 34H343V32H32V34ZM343 72H32V74H343V72ZM32 72C21.5066 72 13 63.4934 13 53H11C11 64.598 20.402 74 32 74V72ZM362 53C362 63.4934 353.493 72 343 72V74C354.598 74 364 64.598 364 53H362ZM343 34C353.493 34 362 42.5066 362 53H364C364 41.402 354.598 32 343 32V34ZM32 32C20.402 32 11 41.402 11 53H13C13 42.5066 21.5066 34 32 34V32Z" fill="#220337"/>
</g>
<defs>
<filter id="filter0_d" x="-59.4756" y="0.0112572" width="493.951" height="182.951" filterUnits="userSpaceOnUse" color-interpolation-filters="sRGB">
<feFlood flood-opacity="0" result="BackgroundImageFix"/>
<feColorMatrix in="SourceAlpha" type="matrix" values="0 0 0 0 0 0 0 0 0 0 0 0 0 0 0 0 0 0 127 0" result="hardAlpha"/>
<feOffset dy="38.4869"/>
<feGaussianBlur stdDeviation="35.7378"/>
<feColorMatrix type="matrix" values="0 0 0 0 0 0 0 0 0 0 0 0 0 0 0 0 0 0 0.07 0"/>
<feBlend mode="normal" in2="BackgroundImageFix" result="effect1_dropShadow"/>
<feBlend mode="normal" in="SourceGraphic" in2="effect1_dropShadow" result="shape"/>
</filter>
</defs>
</svg>
